{
  "accessors": [
    {
      "bufferView": 2,
      "componentType": 5126,
      "count": 3072,
      "max": [
        0.8904370069503784,
        0.025792710483074188,
        5.259731769561768
      ],
      "min": [
        -0.8904371857643127,
        -0.00679406151175499,
        -0.8997321128845215
      ],
      "type": "VEC3"
    },
    {
      "bufferView": 2,
      "byteOffset": 36864,
      "componentType": 5126,
      "count": 3072,
      "max": [
        1.0,
        0.9999518990516663,
        1.0
      ],
      "min": [
        -1.0,
        -0.9999521374702454,
        -1.0
      ],
      "type": "VEC3"
    },
    {
      "bufferView": 1,
      "componentType": 5126,
      "count": 3072,
      "max": [
        0.9999209642410278,
        1.0
      ],
      "min": [
        0.0,
        0.0
      ],
      "type": "VEC2"
    },
    {
      "bufferView": 0,
      "componentType": 5125,
      "count": 9216,
      "type": "SCALAR"
    },
    {
      "bufferView": 2,
      "byteOffset": 73728,
      "componentType": 5126,
      "count": 2241,
      "max": [
        0.8850000500679016,
        0.10294515639543533,
        5.249528408050537
      ],
      "min": [
        -0.8850000500679016,
        0.003257366828620434,
        3.4795289039611816
      ],
      "type": "VEC3"
    },
    {
      "bufferView": 2,
      "byteOffset": 100620,
      "componentType": 5126,
      "count": 2241,
      "max": [
        0.25060218572616577,
        1.0,
        0.25060123205184937
      ],
      "min": [
        -0.2506031095981598,
        0.9680887460708618,
        -0.2506043314933777
      ],
      "type": "VEC3"
    },
    {
      "bufferView": 1,
      "byteOffset": 24576,
      "componentType": 5126,
      "count": 2241,
      "max": [
        0.0,
        0.0
      ],
      "min": [
        0.0,
        0.0
      ],
      "type": "VEC2"
    },
    {
      "bufferView": 0,
      "byteOffset": 36864,
      "componentType": 5125,
      "count": 13056,
      "type": "SCALAR"
    },
    {
      "bufferView": 2,
      "byteOffset": 127512,
      "componentType": 5126,
      "count": 408,
      "max": [
        1.0045216083526611,
        33.07225036621094,
        1.0045216083526611
      ],
      "min": [
        -1.0045216083526611,
        -1.0,
        -1.0045216083526611
      ],
      "type": "VEC3"
    },
    {
      "bufferView": 2,
      "byteOffset": 132408,
      "componentType": 5126,
      "count": 408,
      "max": [
        0.9999468326568604,
        1.0,
        0.9999468326568604
      ],
      "min": [
        -0.9999468326568604,
        -1.0,
        -0.9999468326568604
      ],
      "type": "VEC3"
    },
    {
      "bufferView": 1,
      "byteOffset": 42504,
      "componentType": 5126,
      "count": 408,
      "max": [
        1.0161209106445313,
        1.0
      ],
      "min": [
        -0.25989118218421936,
        0.0
      ],
      "type": "VEC2"
    },
    {
      "bufferView": 0,
      "byteOffset": 89088,
      "componentType": 5125,
      "count": 1140,
      "type": "SCALAR"
    },
    {
      "bufferView": 2,
      "byteOffset": 137304,
      "componentType": 5126,
      "count": 370,
      "max": [
        1.0,
        0.0,
        1.0
      ],
      "min": [
        -1.0,
        -0.014000000432133675,
        -1.0
      ],
      "type": "VEC3"
    },
    {
      "bufferView": 2,
      "byteOffset": 141744,
      "componentType": 5126,
      "count": 370,
      "max": [
        0.991445004940033,
        1.0,
        0.9914450645446777
      ],
      "min": [
        -0.9914451241493225,
        -1.0,
        -0.9914449453353882
      ],
      "type": "VEC3"
    },
    {
      "bufferView": 1,
      "byteOffset": 45768,
      "componentType": 5126,
      "count": 370,
      "max": [
        1.0,
        1.0
      ],
      "min": [
        -3.880492108199185e-11,
        -3.88049245514388e-11
      ],
      "type": "VEC2"
    },
    {
      "bufferView": 0,
      "byteOffset": 93648,
      "componentType": 5125,
      "count": 1212,
      "type": "SCALAR"
    },
    {
      "bufferView": 2,
      "byteOffset": 146184,
      "componentType": 5126,
      "count": 96,
      "max": [
        0.9826969504356384,
        0.0,
        0.9826969504356384
      ],
      "min": [
        -0.9826969504356384,
        0.0,
        -0.9826969504356384
      ],
      "type": "VEC3"
    },
    {
      "bufferView": 2,
      "byteOffset": 147336,
      "componentType": 5126,
      "count": 96,
      "max": [
        0.0,
        1.0,
        -0.0
      ],
      "min": [
        0.0,
        1.0,
        -0.0
      ],
      "type": "VEC3"
    },
    {
      "bufferView": 1,
      "byteOffset": 48728,
      "componentType": 5126,
      "count": 96,
      "max": [
        0.9913485050201416,
        0.9913485646247864
      ],
      "min": [
        0.00865152571350336,
        0.00865152571350336
      ],
      "type": "VEC2"
    },
    {
      "bufferView": 0,
      "byteOffset": 98496,
      "componentType": 5125,
      "count": 276,
      "type": "SCALAR"
    },
    {
      "bufferView": 2,
      "byteOffset": 148488,
      "componentType": 5126,
      "count": 30,
      "max": [
        0.6798543334007263,
        0.0,
        0.6798543334007263
      ],
      "min": [
        -0.6798543334007263,
        0.0,
        -0.6798543334007263
      ],
      "type": "VEC3"
    },
    {
      "bufferView": 2,
      "byteOffset": 148848,
      "componentType": 5126,
      "count": 30,
      "max": [
        0.0,
        1.0,
        -0.0
      ],
      "min": [
        0.0,
        1.0,
        -0.0
      ],
      "type": "VEC3"
    },
    {
      "bufferView": 1,
      "byteOffset": 49496,
      "componentType": 5126,
      "count": 30,
      "max": [
        0.8399273753166199,
        0.8399271965026855
      ],
      "min": [
        0.16007283329963684,
        0.16007281839847565
      ],
      "type": "VEC2"
    },
    {
      "bufferView": 0,
      "byteOffset": 99600,
      "componentType": 5125,
      "count": 84,
      "type": "SCALAR"
    },
    {
      "bufferView": 2,
      "byteOffset": 149208,
      "componentType": 5126,
      "count": 229,
      "max": [
        1.031040906906128,
        1.0189571380615234,
        1.052361011505127
      ],
      "min": [
        -1.031040906906128,
        -1.0,
        -1.0413880348205566
      ],
      "type": "VEC3"
    },
    {
      "bufferView": 2,
      "byteOffset": 151956,
      "componentType": 5126,
      "count": 229,
      "max": [
        1.0,
        0.9999939799308777,
        1.0
      ],
      "min": [
        -1.0,
        -1.0,
        -1.0
      ],
      "type": "VEC3"
    },
    {
      "bufferView": 1,
      "byteOffset": 49736,
      "componentType": 5126,
      "count": 229,
      "max": [
        0.875,
        1.0
      ],
      "min": [
        0.125,
        0.0
      ],
      "type": "VEC2"
    },
    {
      "bufferView": 0,
      "byteOffset": 99936,
      "componentType": 5125,
      "count": 516,
      "type": "SCALAR"
    },
    {
      "bufferView": 2,
      "byteOffset": 154704,
      "componentType": 5126,
      "count": 942,
      "max": [
        1.0,
        0.9999997615814209,
        -0.0
      ],
      "min": [
        -1.0000001192092896,
        -5.360000133514404,
        -0.02983534336090088
      ],
      "type": "VEC3"
    },
    {
      "bufferView": 2,
      "byteOffset": 166008,
      "componentType": 5126,
      "count": 942,
      "max": [
        1.0,
        1.0,
        1.0
      ],
      "min": [
        -1.0,
        -1.0,
        -0.0
      ],
      "type": "VEC3"
    },
    {
      "bufferView": 1,
      "byteOffset": 51568,
      "componentType": 5126,
      "count": 942,
      "max": [
        0.6572327017784119,
        0.6572326421737671
      ],
      "min": [
        0.34276726841926575,
        -0.3427673578262329
      ],
      "type": "VEC2"
    },
    {
      "bufferView": 0,
      "byteOffset": 102000,
      "componentType": 5125,
      "count": 3249,
      "type": "SCALAR"
    },
    {
      "bufferView": 2,
      "byteOffset": 177312,
      "componentType": 5126,
      "count": 24,
      "max": [
        1.1086176633834839,
        1.0995463132858276,
        -0.05534861609339714
      ],
      "min": [
        -1.1071690320968628,
        -5.470509052276611,
        -0.7039847373962402
      ],
      "type": "VEC3"
    },
    {
      "bufferView": 2,
      "byteOffset": 177600,
      "componentType": 5126,
      "count": 24,
      "max": [
        1.0,
        0.9999122023582458,
        0.9999122619628906
      ],
      "min": [
        -1.0,
        -0.9999122023582458,
        -0.9999122619628906
      ],
      "type": "VEC3"
    },
    {
      "bufferView": 1,
      "byteOffset": 59104,
      "componentType": 5126,
      "count": 24,
      "max": [
        0.875,
        1.0
      ],
      "min": [
        0.125,
        0.0
      ],
      "type": "VEC2"
    },
    {
      "bufferView": 0,
      "byteOffset": 114996,
      "componentType": 5125,
      "count": 36,
      "type": "SCALAR"
    },
    {
      "bufferView": 2,
      "byteOffset": 177888,
      "componentType": 5126,
      "count": 9087,
      "max": [
        0.8969022035598755,
        5.271175861358643,
        0.39778637886047363
      ],
      "min": [
        -0.8969022631645203,
        -0.5050255060195923,
        -0.01659834384918213
      ],
      "type": "VEC3"
    },
    {
      "bufferView": 2,
      "byteOffset": 286932,
      "componentType": 5126,
      "count": 9087,
      "max": [
        1.0,
        1.0,
        0.9999991655349731
      ],
      "min": [
        -1.0,
        -1.0,
        -0.6538186073303223
      ],
      "type": "VEC3"
    },
    {
      "bufferView": 1,
      "byteOffset": 59296,
      "componentType": 5126,
      "count": 9087,
      "max": [
        0.8359060287475586,
        0.6980495452880859
      ],
      "min": [
        0.16409394145011902,
        0.40811607241630554
      ],
      "type": "VEC2"
    },
    {
      "bufferView": 0,
      "byteOffset": 115140,
      "componentType": 5125,
      "count": 46368,
      "type": "SCALAR"
    },
    {
      "bufferView": 2,
      "byteOffset": 395976,
      "componentType": 5126,
      "count": 2241,
      "max": [
        0.8850000500679016,
        0.10294515639543533,
        5.249528408050537
      ],
      "min": [
        -0.8850000500679016,
        0.003257366828620434,
        3.4795289039611816
      ],
      "type": "VEC3"
    },
    {
      "bufferView": 2,
      "byteOffset": 422868,
      "componentType": 5126,
      "count": 2241,
      "max": [
        0.25060218572616577,
        1.0,
        0.25060123205184937
      ],
      "min": [
        -0.2506031095981598,
        0.9680887460708618,
        -0.2506043314933777
      ],
      "type": "VEC3"
    },
    {
      "bufferView": 1,
      "byteOffset": 131992,
      "componentType": 5126,
      "count": 2241,
      "max": [
        0.0,
        0.0
      ],
      "min": [
        0.0,
        0.0
      ],
      "type": "VEC2"
    },
    {
      "bufferView": 0,
      "byteOffset": 300612,
      "componentType": 5125,
      "count": 13056,
      "type": "SCALAR"
    },
    {
      "bufferView": 2,
      "byteOffset": 449760,
      "componentType": 5126,
      "count": 2241,
      "max": [
        0.8850000500679016,
        0.10294515639543533,
        5.249528408050537
      ],
      "min": [
        -0.8850000500679016,
        0.003257366828620434,
        3.4795289039611816
      ],
      "type": "VEC3"
    },
    {
      "bufferView": 2,
      "byteOffset": 476652,
      "componentType": 5126,
      "count": 2241,
      "max": [
        0.25060218572616577,
        1.0,
        0.25060123205184937
      ],
      "min": [
        -0.2506031095981598,
        0.9680887460708618,
        -0.2506043314933777
      ],
      "type": "VEC3"
    },
    {
      "bufferView": 1,
      "byteOffset": 149920,
      "componentType": 5126,
      "count": 2241,
      "max": [
        0.0,
        0.0
      ],
      "min": [
        0.0,
        0.0
      ],
      "type": "VEC2"
    },
    {
      "bufferView": 0,
      "byteOffset": 352836,
      "componentType": 5125,
      "count": 13056,
      "type": "SCALAR"
    }
  ],
  "asset": {
    "extras": {
      "author": "tayagrebu (https://sketchfab.com/tayagrebu)",
      "license": "CC-BY-4.0 (http://creativecommons.org/licenses/by/4.0/)",
      "source": "https://sketchfab.com/3d-models/3d-rusty-city-traffic-light-1f7bfa9e0dac4ad79f0977880cf24b6d",
      "title": "3D Rusty City Traffic Light"
    },
    "generator": "Sketchfab-13.88.0",
    "version": "2.0"
  },
  "bufferViews": [
    {
      "buffer": 0,
      "byteLength": 405060,
      "name": "floatBufferViews",
      "target": 34963
    },
    {
      "buffer": 0,
      "byteLength": 167848,
      "byteOffset": 405060,
      "byteStride": 8,
      "name": "floatBufferViews",
      "target": 34962
    },
    {
      "buffer": 0,
      "byteLength": 503544,
      "byteOffset": 572908,
      "byteStride": 12,
      "name": "floatBufferViews",
      "target": 34962
    }
  ],
  "buffers": [
    {
      "byteLength": 1076452,
      "uri": "scene.bin"
    }
  ],
  "images": [
    {
      "uri": "textures/Material.006_baseColor.png"
    },
    {
      "uri": "textures/Material.017_baseColor.jpeg"
    },
    {
      "uri": "textures/Material.016_baseColor.png"
    }
  ],
  "materials": [
    {
      "doubleSided": true,
      "name": "Material.006",
      "pbrMetallicRoughness": {
        "baseColorTexture": {
          "index": 0
        },
        "roughnessFactor": 0.747934
      }
    },
    {
      "doubleSided": true,
      "emissiveFactor": [
        0.0012413,
        0.0,
        5.32908e-05
      ],
      "name": "Black",
      "pbrMetallicRoughness": {
        "baseColorFactor": [
          0.0469996,
          0.0436038,
          0.0440552,
          1.0
        ],
        "roughnessFactor": 0.172727
      }
    },
    {
      "doubleSided": true,
      "name": "Material.017",
      "pbrMetallicRoughness": {
        "baseColorTexture": {
          "index": 1
        },
        "roughnessFactor": 0.698347
      }
    },
    {
      "doubleSided": true,
      "name": "Material.014",
      "pbrMetallicRoughness": {
        "baseColorTexture": {
          "index": 1
        },
        "roughnessFactor": 0.5
      }
    },
    {
      "doubleSided": true,
      "name": "Material.015",
      "pbrMetallicRoughness": {
        "baseColorFactor": [
          0.0,
          0.0,
          0.0,
          1.0
        ],
        "roughnessFactor": 0.243802
      }
    },
    {
      "alphaCutoff": 0.27834731661018597,
      "alphaMode": "MASK",
      "doubleSided": true,
      "name": "Material.016",
      "pbrMetallicRoughness": {
        "baseColorFactor": [
          0.4933703798404019,
          0.4844233077968822,
          0.05049599763270289,
          1.0
        ],
        "baseColorTexture": {
          "index": 2
        },
        "roughnessFactor": 0.42562
      }
    },
    {
      "doubleSided": true,
      "name": "Material.002",
      "pbrMetallicRoughness": {
        "baseColorTexture": {
          "index": 1
        },
        "roughnessFactor": 0.665289
      }
    },
    {
      "doubleSided": true,
      "name": "Material.008",
      "pbrMetallicRoughness": {
        "baseColorTexture": {
          "index": 1
        },
        "roughnessFactor": 0.533058
      }
    },
    {
      "doubleSided": true,
      "name": "Material.007",
      "pbrMetallicRoughness": {
        "baseColorTexture": {
          "index": 1
        },
        "roughnessFactor": 0.359504
      }
    }
  ],
  "meshes": [
    {
      "name": "Object_0",
      "primitives": [
        {
          "attributes": {
            "NORMAL": 1,
            "POSITION": 0,
            "TEXCOORD_0": 2
          },
          "indices": 3,
          "material": 0,
          "mode": 4
        }
      ]
    },
    {
      "name": "Object_1",
      "primitives": [
        {
          "attributes": {
            "NORMAL": 5,
            "POSITION": 4,
            "TEXCOORD_0": 6
          },
          "indices": 7,
          "material": 1,
          "mode": 4
        }
      ]
    },
    {
      "name": "Object_2",
      "primitives": [
        {
          "attributes": {
            "NORMAL": 9,
            "POSITION": 8,
            "TEXCOORD_0": 10
          },
          "indices": 11,
          "material": 2,
          "mode": 4
        }
      ]
    },
    {
      "name": "Object_3",
      "primitives": [
        {
          "attributes": {
            "NORMAL": 13,
            "POSITION": 12,
            "TEXCOORD_0": 14
          },
          "indices": 15,
          "material": 3,
          "mode": 4
        }
      ]
    },
    {
      "name": "Object_4",
      "primitives": [
        {
          "attributes": {
            "NORMAL": 17,
            "POSITION": 16,
            "TEXCOORD_0": 18
          },
          "indices": 19,
          "material": 4,
          "mode": 4
        }
      ]
    },
    {
      "name": "Object_5",
      "primitives": [
        {
          "attributes": {
            "NORMAL": 21,
            "POSITION": 20,
            "TEXCOORD_0": 22
          },
          "indices": 23,
          "material": 5,
          "mode": 4
        }
      ]
    },
    {
      "name": "Object_6",
      "primitives": [
        {
          "attributes": {
            "NORMAL": 25,
            "POSITION": 24,
            "TEXCOORD_0": 26
          },
          "indices": 27,
          "material": 6,
          "mode": 4
        }
      ]
    },
    {
      "name": "Object_7",
      "primitives": [
        {
          "attributes": {
            "NORMAL": 29,
            "POSITION": 28,
            "TEXCOORD_0": 30
          },
          "indices": 31,
          "material": 7,
          "mode": 4
        }
      ]
    },
    {
      "name": "Object_8",
      "primitives": [
        {
          "attributes": {
            "NORMAL": 33,
            "POSITION": 32,
            "TEXCOORD_0": 34
          },
          "indices": 35,
          "material": 8,
          "mode": 4
        }
      ]
    },
    {
      "name": "Object_9",
      "primitives": [
        {
          "attributes": {
            "NORMAL": 37,
            "POSITION": 36,
            "TEXCOORD_0": 38
          },
          "indices": 39,
          "material": 8,
          "mode": 4
        }
      ]
    },
    {
      "name": "Object_10",
      "primitives": [
        {
          "attributes": {
            "NORMAL": 41,
            "POSITION": 40,
            "TEXCOORD_0": 42
          },
          "indices": 43,
          "material": 1,
          "mode": 4
        }
      ]
    },
    {
      "name": "Object_11",
      "primitives": [
        {
          "attributes": {
            "NORMAL": 45,
            "POSITION": 44,
            "TEXCOORD_0": 46
          },
          "indices": 47,
          "material": 1,
          "mode": 4
        }
      ]
    }
  ],
  "nodes": [
    {
      "children": [
        1
      ],
      "matrix": [
        1.0,
        0.0,
        0.0,
        0.0,
        0.0,
        2.220446049250313e-16,
        -1.0,
        0.0,
        0.0,
        1.0,
        2.220446049250313e-16,
        0.0,
        0.0,
        0.0,
        0.0,
        1.0
      ],
      "name": "Sketchfab_model"
    },
    {
      "children": [
        2
      ],
      "name": "root"
    },
    {
      "children": [
        3,
        5,
        7,
        9,
        13,
        15,
        17,
        19,
        21,
        23
      ],
      "matrix": [
        1.0,
        0.0,
        0.0,
        0.0,
        0.0,
        2.220446049250313e-16,
        1.0,
        0.0,
        0.0,
        -1.0,
        2.220446049250313e-16,
        0.0,
        0.0,
        0.0,
        0.0,
        1.0
      ],
      "name": "GLTF_SceneRootNode"
    },
    {
      "children": [
        4
      ],
      "matrix": [
        1.0,
        0.0,
        0.0,
        0.0,
        0.0,
        0.0,
        1.0,
        0.0,
        0.0,
        -1.0,
        0.0,
        0.0,
        0.0,
        18.56523895263672,
        0.0,
        1.0
      ],
      "name": "Bolt_0"
    },
    {
      "mesh": 0,
      "name": "Object_4"
    },
    {
      "children": [
        6
      ],
      "matrix": [
        1.0,
        0.0,
        0.0,
        0.0,
        0.0,
        0.0,
        1.0,
        0.0,
        0.0,
        -1.0,
        0.0,
        0.0,
        0.0,
        18.56520652770996,
        0.0,
        1.0
      ],
      "name": "Circe Glass 3_1"
    },
    {
      "mesh": 1,
      "name": "Object_6"
    },
    {
      "children": [
        8
      ],
      "matrix": [
        0.696431040763855,
        0.0,
        0.0,
        0.0,
        0.0,
        0.696431040763855,
        0.0,
        0.0,
        0.0,
        0.0,
        0.696431040763855,
        0.0,
        0.0,
        0.5793666839599609,
        -1.1974939107894897,
        1.0
      ],
      "name": "Cylinder_2"
    },
    {
      "mesh": 2,
      "name": "Object_8"
    },
    {
      "children": [
        10,
        11,
        12
      ],
      "matrix": [
        1.140478718060283,
        1.1404490744534719,
        -0.00822237644984543,
        0.0,
        1.0706573736065444e-07,
        0.03833093035163336,
        5.3165403475874715,
        0.0,
        1.1404787147931619,
        -1.1404490780516667,
        0.008222330541331233,
        0.0,
        0.0,
        23.439619064331055,
        -0.6891845464706421,
        1.0
      ],
      "name": "Plane_3"
    },
    {
      "mesh": 3,
      "name": "Object_10"
    },
    {
      "mesh": 4,
      "name": "Object_11"
    },
    {
      "mesh": 5,
      "name": "Object_12"
    },
    {
      "children": [
        14
      ],
      "matrix": [
        1.2987903356552124,
        0.0,
        -0.0,
        0.0,
        -0.0,
        1.5241022809166953,
        -0.014610128924708577,
        0.0,
        0.0,
        0.0044454055640457705,
        0.463736685328194,
        0.0,
        0.0,
        6.3499755859375,
        -0.08533798903226852,
        1.0
      ],
      "name": "Box_4"
    },
    {
      "mesh": 6,
      "name": "Object_14"
    },
    {
      "children": [
        16
      ],
      "matrix": [
        1.0,
        0.0,
        0.0,
        0.0,
        0.0,
        1.0,
        0.0,
        0.0,
        0.0,
        0.0,
        1.0,
        0.0,
        0.0,
        18.56523895263672,
        0.0,
        1.0
      ],
      "name": "Base.003_5"
    },
    {
      "mesh": 7,
      "name": "Object_16"
    },
    {
      "children": [
        18
      ],
      "matrix": [
        1.0,
        0.0,
        0.0,
        0.0,
        0.0,
        1.0,
        0.0,
        0.0,
        0.0,
        0.0,
        1.0,
        0.0,
        0.0,
        18.56523895263672,
        0.0,
        1.0
      ],
      "name": "Base.006_6"
    },
    {
      "mesh": 8,
      "name": "Object_18"
    },
    {
      "children": [
        20
      ],
      "matrix": [
        1.0,
        0.0,
        0.0,
        0.0,
        0.0,
        1.0,
        0.0,
        0.0,
        0.0,
        0.0,
        1.0,
        0.0,
        0.0,
        14.18477725982666,
        0.0,
        1.0
      ],
      "name": "Cover_7"
    },
    {
      "mesh": 9,
      "name": "Object_20"
    },
    {
      "children": [
        22
      ],
      "matrix": [
        1.0,
        0.0,
        0.0,
        0.0,
        0.0,
        0.0,
        1.0,
        0.0,
        0.0,
        -1.0,
        0.0,
        0.0,
        0.0,
        22.929996490478516,
        0.0,
        1.0
      ],
      "name": "Circe Glass 1_8"
    },
    {
      "mesh": 10,
      "name": "Object_22"
    },
    {
      "children": [
        24
      ],
      "matrix": [
        1.0,
        0.0,
        0.0,
        0.0,
        0.0,
        0.0,
        1.0,
        0.0,
        0.0,
        -1.0,
        0.0,
        0.0,
        0.0,
        20.7788143157959,
        0.0,
        1.0
      ],
      "name": "Circe Glass 2_9"
    },
    {
      "mesh": 11,
      "name": "Object_24"
    }
  ],
  "samplers": [
    {
      "magFilter": 9729,
      "minFilter": 9987,
      "wrapS": 10497,
      "wrapT": 10497
    }
  ],
  "scene": 0,
  "scenes": [
    {
      "name": "Sketchfab_Scene",
      "nodes": [
        0
      ]
    }
  ],
  "textures": [
    {
      "sampler": 0,
      "source": 0
    },
    {
      "sampler": 0,
      "source": 1
    },
    {
      "sampler": 0,
      "source": 2
    }
  ]
}
